<svg width="270" height="270" viewBox="0 0 270 270" fill="none" xmlns="http://www.w3.org/2000/svg">
<g clip-path="url(#clip0)">
<path d="M120.374 64.227C125.626 83.8409 124.019 104.052 118.395 114.133C107.999 112.317 86.8399 90.8802 81.3446 72.5122C77.1175 58.383 74.2471 30.7051 85.5848 21.0949C94.9494 23.7845 108.153 29.7654 120.374 64.227Z" fill="#7C3AED"/>
<path d="M69.6055 99.8357C91.8102 105.402 106.202 115.96 112.291 125.768C105.662 133.978 76.6531 142.088 57.9245 137.986C43.5179 134.831 17.9203 123.92 15.0139 109.344C21.9073 102.458 45.8897 94.5145 69.6055 99.8357Z" fill="#8C3CE1"/>
<path d="M71.1257 156.991C89.0482 140.527 106.353 138.062 117.831 139.296C120.225 149.574 108.77 177.431 94.014 189.672C82.6631 199.088 58.3119 212.554 45.0332 205.877C43.8465 196.206 49.9363 175.071 71.1257 156.991Z" fill="#9C3ED6"/>
<path d="M121.773 199.803C122.151 171.303 124.831 159.929 132.06 150.929C142.006 154.456 159.288 179.126 161.637 198.154C163.445 212.791 161.652 240.559 148.868 248.141C140.084 243.925 121.736 221.651 121.773 199.803Z" fill="#AD40C9"/>
<path d="M174.733 186.652C159.163 173.603 153.754 162.322 152.724 153.106C160.367 149.439 184.208 153.571 196.376 163.012C205.737 170.274 220.537 187.025 217.614 198.601C210.236 201.216 188.934 198.552 174.733 186.652Z" fill="#BA42BF"/>
<path d="M210.495 154.365C192.52 147.45 185.939 143.088 181.928 136.398C186.493 130.92 206.176 125.745 218.786 128.712C228.486 130.995 245.665 138.635 247.476 148.512C242.747 153.092 228.873 158.42 210.495 154.365Z" fill="#CB44B2"/>
<path d="M226.45 118.371C212.351 116.337 206.888 114.271 202.896 110.105C205.288 105.405 218.635 98.4393 228.217 98.5081C235.588 98.5611 249.233 101.25 252.162 108.077C249.503 112.156 240.372 118.278 226.45 118.371Z" fill="#D445AB"/>
</g>
<defs>
<clipPath id="clip0">
<rect width="270" height="270" fill="white"/>
</clipPath>
</defs>
</svg>
